<?xml version="1.0" encoding="utf-8"?>
<!-- Generator: Adobe Illustrator 24.0.1, SVG Export Plug-In . SVG Version: 6.00 Build 0)  -->
<svg version="1.1" id="Layer_1" xmlns="http://www.w3.org/2000/svg" xmlns:xlink="http://www.w3.org/1999/xlink" x="0px" y="0px"
	 viewBox="0 0 47 6" style="enable-background:new 0 0 47 6;" xml:space="preserve">
<g>
	<path d="M2.5,0.8c0.4,0,0.8,0.3,0.8,0.8S2.9,2.3,2.5,2.3S1.8,1.9,1.8,1.5S2.1,0.8,2.5,0.8 M2.5,0.5c-0.6,0-1,0.4-1,1s0.4,1,1,1
		s1-0.4,1-1S3.1,0.5,2.5,0.5L2.5,0.5z"/>
</g>
<g>
	<path d="M2.5,3.8c0.4,0,0.8,0.3,0.8,0.8S2.9,5.3,2.5,5.3S1.8,4.9,1.8,4.5S2.1,3.8,2.5,3.8 M2.5,3.5c-0.6,0-1,0.4-1,1s0.4,1,1,1
		s1-0.4,1-1S3.1,3.5,2.5,3.5L2.5,3.5z"/>
</g>
<g>
	<path d="M5.5,0.8c0.4,0,0.8,0.3,0.8,0.8S5.9,2.3,5.5,2.3S4.8,1.9,4.8,1.5S5.1,0.8,5.5,0.8 M5.5,0.5c-0.6,0-1,0.4-1,1s0.4,1,1,1
		s1-0.4,1-1S6.1,0.5,5.5,0.5L5.5,0.5z"/>
</g>
<g>
	<path d="M5.5,3.8c0.4,0,0.8,0.3,0.8,0.8S5.9,5.3,5.5,5.3S4.8,4.9,4.8,4.5S5.1,3.8,5.5,3.8 M5.5,3.5c-0.6,0-1,0.4-1,1s0.4,1,1,1
		s1-0.4,1-1S6.1,3.5,5.5,3.5L5.5,3.5z"/>
</g>
<g>
	<path d="M8.5,0.8c0.4,0,0.8,0.3,0.8,0.8S8.9,2.3,8.5,2.3S7.8,1.9,7.8,1.5S8.1,0.8,8.5,0.8 M8.5,0.5c-0.6,0-1,0.4-1,1s0.4,1,1,1
		c0.6,0,1-0.4,1-1S9.1,0.5,8.5,0.5L8.5,0.5z"/>
</g>
<g>
	<path d="M8.5,3.8c0.4,0,0.8,0.3,0.8,0.8S8.9,5.3,8.5,5.3S7.8,4.9,7.8,4.5S8.1,3.8,8.5,3.8 M8.5,3.5c-0.6,0-1,0.4-1,1s0.4,1,1,1
		c0.6,0,1-0.4,1-1S9.1,3.5,8.5,3.5L8.5,3.5z"/>
</g>
<g>
	<path d="M11.5,0.8c0.4,0,0.8,0.3,0.8,0.8s-0.3,0.8-0.8,0.8s-0.8-0.3-0.8-0.8S11.1,0.8,11.5,0.8 M11.5,0.5c-0.6,0-1,0.4-1,1
		s0.4,1,1,1s1-0.4,1-1S12.1,0.5,11.5,0.5L11.5,0.5z"/>
</g>
<g>
	<path d="M11.5,3.8c0.4,0,0.8,0.3,0.8,0.8s-0.3,0.8-0.8,0.8s-0.8-0.3-0.8-0.8S11.1,3.8,11.5,3.8 M11.5,3.5c-0.6,0-1,0.4-1,1
		s0.4,1,1,1s1-0.4,1-1S12.1,3.5,11.5,3.5L11.5,3.5z"/>
</g>
<g>
	<path d="M14.5,0.8c0.4,0,0.8,0.3,0.8,0.8s-0.3,0.8-0.8,0.8s-0.8-0.3-0.8-0.8S14.1,0.8,14.5,0.8 M14.5,0.5c-0.6,0-1,0.4-1,1
		s0.4,1,1,1s1-0.4,1-1S15.1,0.5,14.5,0.5L14.5,0.5z"/>
</g>
<g>
	<path d="M14.5,3.8c0.4,0,0.8,0.3,0.8,0.8s-0.3,0.8-0.8,0.8s-0.8-0.3-0.8-0.8S14.1,3.8,14.5,3.8 M14.5,3.5c-0.6,0-1,0.4-1,1
		s0.4,1,1,1s1-0.4,1-1S15.1,3.5,14.5,3.5L14.5,3.5z"/>
</g>
<g>
	<path d="M17.5,0.8c0.4,0,0.8,0.3,0.8,0.8s-0.3,0.8-0.8,0.8s-0.8-0.3-0.8-0.8S17.1,0.8,17.5,0.8 M17.5,0.5c-0.6,0-1,0.4-1,1
		s0.4,1,1,1s1-0.4,1-1S18.1,0.5,17.5,0.5L17.5,0.5z"/>
</g>
<g>
	<path d="M17.5,3.8c0.4,0,0.8,0.3,0.8,0.8s-0.3,0.8-0.8,0.8s-0.8-0.3-0.8-0.8S17.1,3.8,17.5,3.8 M17.5,3.5c-0.6,0-1,0.4-1,1
		s0.4,1,1,1s1-0.4,1-1S18.1,3.5,17.5,3.5L17.5,3.5z"/>
</g>
<g>
	<path d="M20.5,0.8c0.4,0,0.8,0.3,0.8,0.8s-0.3,0.8-0.8,0.8s-0.8-0.3-0.8-0.8S20.1,0.8,20.5,0.8 M20.5,0.5c-0.6,0-1,0.4-1,1
		s0.4,1,1,1s1-0.4,1-1S21.1,0.5,20.5,0.5L20.5,0.5z"/>
</g>
<g>
	<path d="M20.5,3.8c0.4,0,0.8,0.3,0.8,0.8s-0.3,0.8-0.8,0.8s-0.8-0.3-0.8-0.8S20.1,3.8,20.5,3.8 M20.5,3.5c-0.6,0-1,0.4-1,1
		s0.4,1,1,1s1-0.4,1-1S21.1,3.5,20.5,3.5L20.5,3.5z"/>
</g>
<g>
	<path d="M23.5,0.8c0.4,0,0.8,0.3,0.8,0.8s-0.3,0.8-0.8,0.8s-0.8-0.3-0.8-0.8S23.1,0.8,23.5,0.8 M23.5,0.5c-0.6,0-1,0.4-1,1
		s0.4,1,1,1s1-0.4,1-1S24.1,0.5,23.5,0.5L23.5,0.5z"/>
</g>
<g>
	<path d="M23.5,3.8c0.4,0,0.8,0.3,0.8,0.8s-0.3,0.8-0.8,0.8s-0.8-0.3-0.8-0.8S23.1,3.8,23.5,3.8 M23.5,3.5c-0.6,0-1,0.4-1,1
		s0.4,1,1,1s1-0.4,1-1S24.1,3.5,23.5,3.5L23.5,3.5z"/>
</g>
<g>
	<path d="M26.5,0.8c0.4,0,0.8,0.3,0.8,0.8s-0.3,0.8-0.8,0.8s-0.8-0.3-0.8-0.8S26.1,0.8,26.5,0.8 M26.5,0.5c-0.6,0-1,0.4-1,1
		s0.4,1,1,1s1-0.4,1-1S27.1,0.5,26.5,0.5L26.5,0.5z"/>
</g>
<g>
	<path d="M26.5,3.8c0.4,0,0.8,0.3,0.8,0.8s-0.3,0.8-0.8,0.8s-0.8-0.3-0.8-0.8S26.1,3.8,26.5,3.8 M26.5,3.5c-0.6,0-1,0.4-1,1
		s0.4,1,1,1s1-0.4,1-1S27.1,3.5,26.5,3.5L26.5,3.5z"/>
</g>
<g>
	<path d="M29.5,0.8c0.4,0,0.8,0.3,0.8,0.8s-0.3,0.8-0.8,0.8s-0.8-0.3-0.8-0.8S29.1,0.8,29.5,0.8 M29.5,0.5c-0.6,0-1,0.4-1,1
		s0.4,1,1,1s1-0.4,1-1S30.1,0.5,29.5,0.5L29.5,0.5z"/>
</g>
<g>
	<path d="M29.5,3.8c0.4,0,0.8,0.3,0.8,0.8s-0.3,0.8-0.8,0.8s-0.8-0.3-0.8-0.8S29.1,3.8,29.5,3.8 M29.5,3.5c-0.6,0-1,0.4-1,1
		s0.4,1,1,1s1-0.4,1-1S30.1,3.5,29.5,3.5L29.5,3.5z"/>
</g>
<g>
	<path d="M32.5,0.8c0.4,0,0.8,0.3,0.8,0.8s-0.3,0.8-0.8,0.8s-0.8-0.3-0.8-0.8S32.1,0.8,32.5,0.8 M32.5,0.5c-0.6,0-1,0.4-1,1
		s0.4,1,1,1s1-0.4,1-1S33.1,0.5,32.5,0.5L32.5,0.5z"/>
</g>
<g>
	<path d="M32.5,3.8c0.4,0,0.8,0.3,0.8,0.8s-0.3,0.8-0.8,0.8s-0.8-0.3-0.8-0.8S32.1,3.8,32.5,3.8 M32.5,3.5c-0.6,0-1,0.4-1,1
		s0.4,1,1,1s1-0.4,1-1S33.1,3.5,32.5,3.5L32.5,3.5z"/>
</g>
<g>
	<path d="M35.5,0.8c0.4,0,0.8,0.3,0.8,0.8s-0.3,0.8-0.8,0.8s-0.8-0.3-0.8-0.8S35.1,0.8,35.5,0.8 M35.5,0.5c-0.6,0-1,0.4-1,1
		s0.4,1,1,1s1-0.4,1-1S36.1,0.5,35.5,0.5L35.5,0.5z"/>
</g>
<g>
	<path d="M35.5,3.8c0.4,0,0.8,0.3,0.8,0.8s-0.3,0.8-0.8,0.8s-0.8-0.3-0.8-0.8S35.1,3.8,35.5,3.8 M35.5,3.5c-0.6,0-1,0.4-1,1
		s0.4,1,1,1s1-0.4,1-1S36.1,3.5,35.5,3.5L35.5,3.5z"/>
</g>
<g>
	<path d="M38.5,0.8c0.4,0,0.8,0.3,0.8,0.8s-0.3,0.8-0.8,0.8s-0.8-0.3-0.8-0.8S38.1,0.8,38.5,0.8 M38.5,0.5c-0.6,0-1,0.4-1,1
		s0.4,1,1,1s1-0.4,1-1S39.1,0.5,38.5,0.5L38.5,0.5z"/>
</g>
<g>
	<path d="M38.5,3.8c0.4,0,0.8,0.3,0.8,0.8s-0.3,0.8-0.8,0.8s-0.8-0.3-0.8-0.8S38.1,3.8,38.5,3.8 M38.5,3.5c-0.6,0-1,0.4-1,1
		s0.4,1,1,1s1-0.4,1-1S39.1,3.5,38.5,3.5L38.5,3.5z"/>
</g>
<g>
	<path d="M41.5,0.8c0.4,0,0.8,0.3,0.8,0.8s-0.3,0.8-0.8,0.8s-0.8-0.3-0.8-0.8S41.1,0.8,41.5,0.8 M41.5,0.5c-0.6,0-1,0.4-1,1
		s0.4,1,1,1s1-0.4,1-1S42.1,0.5,41.5,0.5L41.5,0.5z"/>
</g>
<g>
	<path d="M41.5,3.8c0.4,0,0.8,0.3,0.8,0.8s-0.3,0.8-0.8,0.8s-0.8-0.3-0.8-0.8S41.1,3.8,41.5,3.8 M41.5,3.5c-0.6,0-1,0.4-1,1
		s0.4,1,1,1s1-0.4,1-1S42.1,3.5,41.5,3.5L41.5,3.5z"/>
</g>
<g>
	<path d="M44.5,0.8c0.4,0,0.8,0.3,0.8,0.8s-0.3,0.8-0.8,0.8s-0.8-0.3-0.8-0.8S44.1,0.8,44.5,0.8 M44.5,0.5c-0.6,0-1,0.4-1,1
		s0.4,1,1,1s1-0.4,1-1S45.1,0.5,44.5,0.5L44.5,0.5z"/>
</g>
<g>
	<path d="M44.5,3.8c0.4,0,0.8,0.3,0.8,0.8s-0.3,0.8-0.8,0.8s-0.8-0.3-0.8-0.8S44.1,3.8,44.5,3.8 M44.5,3.5c-0.6,0-1,0.4-1,1
		s0.4,1,1,1s1-0.4,1-1S45.1,3.5,44.5,3.5L44.5,3.5z"/>
</g>
</svg>
